<?xml version="1.0" standalone="no"?>
<!DOCTYPE svg PUBLIC "-//W3C//DTD SVG 20010904//EN"
 "http://www.w3.org/TR/2001/REC-SVG-20010904/DTD/svg10.dtd">
<svg version="1.0" xmlns="http://www.w3.org/2000/svg"
 width="512.000000pt" height="512.000000pt" viewBox="0 0 512.000000 512.000000"
 preserveAspectRatio="xMidYMid meet">
<metadata>
Created by potrace 1.14, written by Peter Selinger 2001-2017
</metadata>
<g transform="translate(0.000000,512.000000) scale(0.100000,-0.100000)"
fill="#000000" stroke="none">
<path d="M904 4012 c-12 -2 -24 -11 -26 -20 -6 -29 -1 -784 6 -855 6 -59 21
-149 40 -226 52 -223 200 -476 381 -655 268 -264 599 -404 975 -411 238 -5
440 37 640 132 287 136 537 379 674 654 l28 56 196 0 c163 1 210 5 274 22 293
77 491 327 497 629 8 350 -270 654 -614 672 -79 4 -3044 6 -3071 2z m3112
-361 c157 -42 258 -221 214 -381 -17 -64 -36 -97 -81 -141 -75 -74 -146 -95
-309 -94 l-105 1 3 45 c1 24 5 162 7 307 3 145 7 267 9 271 7 11 215 5 262 -8z"/>
<path d="M542 1657 c6 -12 25 -44 43 -72 18 -27 72 -115 120 -195 48 -80 97
-158 108 -173 27 -40 92 -85 141 -98 62 -18 2642 -19 2709 -1 76 19 134 66
182 147 11 19 71 118 133 220 61 102 112 187 112 189 0 2 -801 4 -1780 4
l-1780 0 12 -21z"/>
</g>
</svg>
